<?xml version="1.0" encoding="utf-8" standalone="yes"?>
<!DOCTYPE svg PUBLIC "-//W3C//DTD SVG 1.1//EN" "http://www.w3.org/Graphics/SVG/1.1/DTD/svg11.dtd">
<svg version="1.1" xmlns="http://www.w3.org/2000/svg" xmlns:xlink="http://www.w3.org/1999/xlink" width="13.333333in" height="7.5in" class="slides-canvas" viewBox="0 0 960 540">
  <defs>
    <linearGradient id="lg_a8b7df_I09aabd9_879ed7_90_5_6513b" x1="0" y1="1" x2="0" y2="51" spreadMethod="reflect" gradientUnits="userSpaceOnUse">
      <stop offset="0" stop-color="#A8B7DF" />
      <stop offset="0.5" stop-color="#9AABD9" />
      <stop offset="1" stop-color="#879ED7" />
    </linearGradient>
    <linearGradient id="lg_a8b7df_I09aabd9_879ed7_90_94_6513b" x1="0" y1="58" x2="0" y2="108" spreadMethod="reflect" gradientUnits="userSpaceOnUse">
      <stop offset="0" stop-color="#A8B7DF" />
      <stop offset="0.5" stop-color="#9AABD9" />
      <stop offset="1" stop-color="#879ED7" />
    </linearGradient>
    <linearGradient id="lg_ffdd9c_I0ffd78e_ffd479_90_a7_a195e" x1="0" y1="105" x2="0" y2="185" spreadMethod="reflect" gradientUnits="userSpaceOnUse">
      <stop offset="0" stop-color="#FFDD9C" />
      <stop offset="0.5" stop-color="#FFD78E" />
      <stop offset="1" stop-color="#FFD479" />
    </linearGradient>
    <marker id="ah1" markerUnits="userSpaceOnUse" markerWidth="27" markerHeight="15.75" viewBox="-13.5 -7.875 27 15.75" orient="auto">
      <path d="M-6.75 3.938L0 0-6.75-3.938" fill="none" stroke="#000000" stroke-width="2.25" stroke-linecap="round" />
    </marker>
  </defs>
  <g text-rendering="geometricPrecision" transform="scale(1, 1)">
    <rect x="0" y="0" width="960" height="540" fill="#FFFFFF" />
    <path fill="#FFFFFF" d="M137.77 99.69L711 99.69 711 477 137.77 477z" />
    <path fill="url(#lg_a8b7df_I09aabd9_879ed7_90_5_6513b)" d="M167.32 406.47L602.78 406.47 602.78 457.01 167.32 457.01z" />
    <path stroke-width="0.5" stroke="#4472C4" fill="none" d="M167.32 406.47L602.78 406.47 602.78 457.01 167.32 457.01z" />
    <g transform="matrix(1, 0, 0, 1, 174.523, 410.0748)"><text font-family="Noto Sans" font-style="normal" font-weight="normal" font-stretch="normal" font-size="13.5pt" fill="#000000" x="142.03073" y="27.822388"><tspan x="142.49422" y="28.285875" id="tp_0_shadow" fill="#000000" fill-opacity="0.27">Comm Interface</tspan><tspan x="142.03073" y="27.822388" id="tp_0">Comm Interface</tspan></text></g>
    <path fill="url(#lg_a8b7df_I09aabd9_879ed7_90_94_6513b)" d="M167.32 159.56L602.78 159.56 602.78 210.1 167.32 210.1z" />
    <path stroke-width="0.5" stroke="#4472C4" fill="none" d="M167.32 159.56L602.78 159.56 602.78 210.1 167.32 210.1z" />
    <g transform="matrix(1, 0, 0, 1, 174.52309, 163.16025)"><text font-family="Noto Sans" font-style="normal" font-weight="normal" font-stretch="normal" font-size="13.5pt" fill="#000000" x="163.09323" y="27.822388"><tspan x="163.55672" y="28.285875" id="tp_1_shadow" fill="#000000" fill-opacity="0.27">Application</tspan><tspan x="163.09323" y="27.822388" id="tp_1">Application</tspan></text></g>
    <g transform="matrix(1, 0, 0, 1, 401.2539, 211.73283)"><text font-family="Noto Sans" font-style="normal" font-weight="normal" font-stretch="normal" font-size="13.5pt" fill="#000000" x="0" y="16.953175"><tspan x="0" y="16.953175">FreeRTOS Cellular Interface APIs request</tspan></text></g>
    <path fill="#FFE699" fill-opacity="0.5" d="M167.32 235.25L602.78 235.25 602.78 381.33 167.32 381.33z" />
    <path fill="url(#lg_ffdd9c_I0ffd78e_ffd479_90_a7_a195e)" d="M200.31 267.2L371.08 267.2 371.08 347.99 200.31 347.99z" />
    <path stroke-width="0.5" stroke="#FFC000" fill="none" d="M200.31 267.2L371.08 267.2 371.08 347.99 200.31 347.99z" />
    <g transform="matrix(1, 0, 0, 1, 207.50787, 270.79822)"><text font-family="Noto Sans" font-style="normal" font-weight="normal" font-stretch="normal" font-size="13.5pt" fill="#000000" x="51.08496" y="64.549515"><tspan x="34.698837" y="21.813002" id="tp_2_shadow" fill="#000000" fill-opacity="0.27">FreeRTOS-</tspan><tspan x="34.23535" y="21.349514" id="tp_2">FreeRTOS-</tspan><tspan x="5.3980575" y="43.413002" id="tp_3_shadow" fill="#000000" fill-opacity="0.27">Cellular-Interface</tspan><tspan x="4.9345703" y="42.949516" id="tp_3">Cellular-Interface</tspan><tspan xml:space="preserve" x="151.43457" y="42.949516"> </tspan><tspan x="51.548447" y="65.013" id="tp_4_shadow" fill="#000000" fill-opacity="0.27">library</tspan><tspan x="51.08496" y="64.549515" id="tp_4">library</tspan></text></g>
    <path fill="url(#lg_ffdd9c_I0ffd78e_ffd479_90_a7_a195e)" d="M406.15 267.2L576.92 267.2 576.92 347.99 406.15 347.99z" />
    <path stroke-width="0.5" stroke="#FFC000" fill="none" d="M406.15 267.2L576.92 267.2 576.92 347.99 406.15 347.99z" />
    <g transform="matrix(1, 0, 0, 1, 413.354, 270.79822)"><text font-family="Noto Sans" font-style="normal" font-weight="normal" font-stretch="normal" font-size="13.5pt" fill="#000000" x="10.55957" y="53.749516"><tspan x="12.210557" y="32.613" id="tp_5_shadow" fill="#000000" fill-opacity="0.27">Cellular Module</tspan><tspan x="11.74707" y="32.149513" id="tp_5">Cellular Module</tspan><tspan xml:space="preserve" x="144.62207" y="32.149513"> </tspan><tspan x="11.023057" y="54.213" id="tp_6_shadow" fill="#000000" fill-opacity="0.27">implementation</tspan><tspan x="10.55957" y="53.749516" id="tp_6">implementation</tspan></text></g>
    <path marker-end="url(#ah1)" stroke-width="2.25" stroke="#000000" fill="none" d="M385.05 210.1L385.05 230.74 385.05 231.87" />
    <g transform="matrix(-1, 0, 0, 1, 770.1076, 0)">
      <path marker-end="url(#ah1)" stroke-width="2.25" stroke="#000000" fill="none" d="M385.05 381.33L385.05 401.97 385.05 403.1" />
    </g>
  </g>
</svg>